#!OML:ASF H:\ManfredObstacles\Project 1\Capture day 1\Session 1\Male.ASF
:FULLY-SPECIFIED
:DEGREES
552
root 1.91436 16.7067 -19.8957 -166.325 -10.2633 -179.205
lowerback -11.0383 -2.35351 -0.386516
upperback -0.151249 -3.21266 1.10828
thorax 6.11914 -1.63123 0.857485
lowerneck 0.725691 -2.97591 -6.42862
upperneck -11.2949 -3.84423 11.0045
head -3.0935 -2.37025 4.53177
rclavicle -5.94413e-016 4.805e-015
rhumerus -34.0909 -21.3399 -77.4825
rradius 26.5014
rwrist 36.5184
rhand -1.58551 -3.78697
rfingers 7.12502
rthumb 24.0709 -32.2973
lclavicle -5.94413e-016 4.805e-015
lhumerus -19.5772 -2.91354 96.1591
lradius 23.2226
lwrist -22.2976
lhand -8.89634 7.77826
lfingers 7.12502
lthumb 17.0462 37.0504
rfemur -30.6425 -7.12668 24.5631
rtibia 26.7546
rfoot -12.7321 13.7937
rtoes 15.9809
lfemur 9.77216 -2.58719 -12.5793
ltibia 3.81667e-014
lfoot 15.1358 -14.7801
ltoes -9.08579
553
root 1.91752 16.7069 -19.9069 -166.384 -10.2589 -179.005
lowerback -10.9821 -2.36934 -0.164045
upperback -0.100412 -3.26541 1.17274
thorax 6.13389 -1.65122 0.792846
lowerneck 0.582447 -2.89806 -6.47677
upperneck -11.2897 -3.73655 11.1258
head -3.07333 -2.32176 4.57277
rclavicle 4.73977e-014 -6.55989e-015
rhumerus -34.1256 -21.4184 -77.4157
rradius 26.4036
rwrist 36.8342
rhand -1.51102 -3.79018
rfingers 7.12502
rthumb 24.1423 -32.291
lclavicle 4.73977e-014 -6.55989e-015
lhumerus -19.499 -2.87475 96.1363
lradius 22.9641
lwrist -22.439
lhand -8.78995 7.90634
lfingers 7.12502
lthumb 17.1486 37.1696
rfemur -30.5683 -7.2262 24.8409
rtibia 26.7231
rfoot -12.4666 13.9423
rtoes 15.3818
lfemur 9.83766 -2.54232 -12.3219
ltibia 0
lfoot 15.3297 -14.8636
ltoes -9.552
554
root 1.92163 16.7071 -19.9165 -166.393 -10.2698 -179.012
lowerback -10.8567 -2.39812 -0.0997806
upperback -0.139648 -3.3093 1.14465
thorax 6.01735 -1.67097 0.726708
lowerneck 0.695753 -2.81918 -6.56718
upperneck -11.3306 -3.62337 11.313
head -3.1078 -2.27541 4.6479
rclavicle 3.93058e-014 -2.95071e-016
rhumerus -34.3673 -21.419 -77.3649
rradius 26.4412
rwrist 37.0275
rhand -1.40483 -3.81934
rfingers 7.12502
rthumb 24.2441 -32.3066
lclavicle 3.93058e-014 -2.95071e-016
lhumerus -19.6293 -2.72408 96.0288
lradius 22.7193
lwrist -22.6383
lhand -8.71415 7.9524
lfingers 7.12502
lthumb 17.2216 37.2093
rfemur -30.5334 -7.34795 24.8908
rtibia 26.7286
rfoot -12.388 14.0796
rtoes 15.546
lfemur 9.871 -2.55755 -12.295
ltibia 2.54444e-014
lfoot 15.432 -14.8652
ltoes -10.0908
555
root 1.9256 16.709 -19.9284 -166.39 -10.3224 -179.033
lowerback -10.7772 -2.37428 0.0277812
upperback -0.154224 -3.28581 1.04625
thorax 5.94357 -1.6541 0.560031
lowerneck 0.532188 -2.87485 -6.48151
upperneck -11.1303 -3.69624 11.3142
head -3.01594 -2.30537 4.62611
rclavicle 2.10432e-014 7.52897e-015
rhumerus -34.5836 -21.6277 -77.3209
rradius 26.4226
rwrist 37.1734
rhand -1.38114 -3.87254
rfingers 7.12502
rthumb 24.2668 -32.3568
lclavicle 2.10432e-014 7.52897e-015
lhumerus -19.8112 -2.83046 95.8881
lradius 22.5148
lwrist -22.8451
lhand -8.62524 8.03812
lfingers 7.12502
lthumb 17.3071 37.2875
rfemur -30.4781 -7.54014 24.9333
rtibia 26.718
rfoot -12.3442 14.2411
rtoes 16.0872
lfemur 9.89696 -2.61567 -12.2861
ltibia 5.08889e-014
lfoot 15.3877 -14.9654
ltoes -11.0926
556
root 1.93225 16.7121 -19.9382 -166.368 -10.3243 -179.052
lowerback -10.8872 -2.39511 -0.00473993
upperback -0.0112438 -3.3062 1.03989
thorax 6.15822 -1.66198 0.560121
lowerneck 0.248403 -2.89333 -6.34907
upperneck -11.123 -3.73003 11.1402
head -2.97088 -2.31718 4.54444
rclavicle -2.39008e-014 1.24737e-014
rhumerus -34.3755 -21.8 -77.3417
rradius 26.3006
rwrist 37.343
rhand -1.37612 -3.92682
rfingers 7.12502
rthumb 24.2717 -32.4104
lclavicle -2.39008e-014 1.24737e-014
lhumerus -19.6807 -2.75262 95.7379
lradius 22.2492
lwrist -23.1573
lhand -8.43177 8.16226
lfingers 7.12502
lthumb 17.4933 37.3952
rfemur -30.488 -7.57897 24.9549
rtibia 26.767
rfoot -12.3919 14.2683
rtoes 15.8883
lfemur 9.89503 -2.62036 -12.2718
ltibia 1.90833e-014
lfoot 15.3436 -15.1475
ltoes -12.2304
557
root 1.94066 16.7131 -19.9474 -166.258 -10.196 -179.311
lowerback -10.9678 -2.39539 -0.280699
upperback 0.0244908 -3.26438 0.955902
thorax 6.25121 -1.64715 0.629282
lowerneck 0.176666 -2.90906 -6.277
upperneck -11.1328 -3.75716 11.0057
head -2.96465 -2.32659 4.48992
rclavicle 1.84559e-014 7.10655e-015
rhumerus -34.3051 -21.8228 -77.3759
rradius 26.228
rwrist 37.2597
rhand -1.3307 -3.97718
rfingers 7.12502
rthumb 24.3152 -32.455
lclavicle 1.84559e-014 7.10655e-015
lhumerus -19.6618 -2.4631 95.5353
lradius 21.8779
lwrist -23.7275
lhand -8.11165 8.256
lfingers 7.12502
lthumb 17.8014 37.4612
rfemur -30.5712 -7.41964 24.6718
rtibia 26.8419
rfoot -12.4941 14.1267
rtoes 15.2047
lfemur 9.84247 -2.54838 -12.5388
ltibia 3.18055e-015
lfoot 15.4632 -15.1698
ltoes -12.3171
558
root 1.94587 16.712 -19.9533 -166.181 -10.0435 -179.521
lowerback -10.928 -2.38794 -0.476009
upperback -0.0249791 -3.22549 0.888155
thorax 6.18259 -1.63332 0.677084
lowerneck 0.27428 -2.88876 -6.29695
upperneck -11.1211 -3.72981 10.9775
head -2.98022 -2.31017 4.48587
rclavicle -3.06253e-015 2.48481e-017
rhumerus -34.3785 -21.6859 -77.394
rradius 26.1941
rwrist 37.0344
rhand -1.4494 -3.96128
rfingers 7.12502
rthumb 24.2014 -32.4543
lclavicle -3.06253e-015 2.48481e-017
lhumerus -19.8125 -2.05481 95.3301
lradius 21.4771
lwrist -24.367
lhand -7.89857 8.31789
lfingers 7.12502
lthumb 18.0064 37.5044
rfemur -30.6451 -7.29831 24.4399
rtibia 26.9196
rfoot -12.7878 14.0533
rtoes 13.9101
lfemur 9.81969 -2.44553 -12.7787
ltibia -9.54166e-015
lfoot 15.6462 -15.0655
ltoes -11.762
559
root 1.94652 16.7095 -19.9587 -166.211 -10.0304 -179.535
lowerback -10.8383 -2.40308 -0.445115
upperback -0.0272848 -3.24988 0.900986
thorax 6.12919 -1.64457 0.673208
lowerneck 0.28586 -2.85945 -6.40346
upperneck -11.1259 -3.68911 11.0273
head -2.98365 -2.28801 4.51889
rclavicle 1.7549e-014 -3.13086e-015
rhumerus -34.424 -21.5562 -77.3638
rradius 26.1885
rwrist 36.9182
rhand -1.6492 -3.90436
rfingers 7.12502
rthumb 24.0098 -32.4227
lclavicle 1.7549e-014 -3.13086e-015
lhumerus -19.9449 -1.71546 95.1644
lradius 21.1485
lwrist -24.8126
lhand -7.84415 8.37124
lfingers 7.12502
lthumb 18.0588 37.5529
rfemur -30.6318 -7.49162 24.4802
rtibia 26.9871
rfoot -13.3631 14.2845
rtoes 11.9919
lfemur 9.88532 -2.44273 -12.8024
ltibia -3.18055e-014
lfoot 15.8237 -14.9771
ltoes -11.0591
560
root 1.94982 16.7077 -19.9595 -166.241 -9.96343 -179.585
lowerback -10.7171 -2.39116 -0.471011
upperback -0.0105667 -3.22773 0.878741
thorax 6.0783 -1.63362 0.672913
lowerneck 0.232209 -2.83646 -6.44565
upperneck -11.1337 -3.65707 11.0771
head -2.9777 -2.27329 4.54007
rclavicle -1.13183e-014 -1.68967e-015
rhumerus -34.4382 -21.5271 -77.3671
rradius 26.1868
rwrist 36.8748
rhand -1.72143 -3.88147
rfingers 7.12502
rthumb 23.9406 -32.4089
lclavicle -1.13183e-014 -1.68967e-015
lhumerus -20.0154 -1.47335 94.954
lradius 20.8554
lwrist -25.18
lhand -7.74936 8.45109
lfingers 7.12502
lthumb 18.15 37.6243
rfemur -30.5959 -7.41794 24.4162
rtibia 27.0048
rfoot -13.7394 14.3074
rtoes 12.8541
lfemur 9.93665 -2.39509 -12.86
ltibia -2.22639e-014
lfoot 16.0558 -14.7693
ltoes -10.1249
561
root 1.9484 16.707 -19.9777 -166.221 -10.1398 -179.635
lowerback -10.8631 -2.42191 -0.344391
upperback -0.0253706 -3.28008 0.791082
thorax 6.13336 -1.65425 0.495855
lowerneck 0.476445 -2.80576 -6.33134
upperneck -11.2374 -3.61537 11.0357
head -3.05642 -2.26179 4.51538
rclavicle -6.85807e-015 1.49089e-016
rhumerus -34.6424 -21.5708 -77.3883
rradius 26.2326
rwrist 36.8106
rhand -1.69067 -3.88299
rfingers 7.12502
rthumb 23.9701 -32.4066
lclavicle -6.85807e-015 1.49089e-016
lhumerus -20.2416 -1.2159 94.6568
lradius 20.5575
lwrist -25.6398
lhand -7.71728 8.4465
lfingers 7.12502
lthumb 18.1809 37.6168
rfemur -30.5494 -7.89059 24.4614
rtibia 27.0092
rfoot -13.9036 14.6964
rtoes 15.1053
lfemur 9.95632 -2.57943 -12.8877
ltibia -2.54444e-014
lfoot 16.1712 -14.571
ltoes -9.02965
562
root 1.95414 16.7042 -19.9768 -166.174 -10.0815 -179.763
lowerback -10.8708 -2.44931 -0.497145
upperback 0.018135 -3.29394 0.767097
thorax 6.19117 -1.66435 0.552664
lowerneck 0.65273 -2.74218 -6.22299
upperneck -11.47 -3.53767 10.8703
head -3.16859 -2.23104 4.4547
rclavicle -1.35981e-014 3.08116e-015
rhumerus -34.5549 -21.4983 -77.4666
rradius 26.2946
rwrist 36.7305
rhand -1.55226 -3.9246
rfingers 7.12502
rthumb 24.1028 -32.4307
lclavicle -1.35981e-014 3.08116e-015
lhumerus -20.2948 -0.650112 94.3695
lradius 20.3358
lwrist -26.1744
lhand -7.77771 8.43249
lfingers 7.12502
lthumb 18.1227 37.6082
rfemur -30.5605 -7.64901 24.2618
rtibia 26.9882
rfoot -13.824 14.5427
rtoes 15.6707
lfemur 9.92671 -2.54937 -13.0137
ltibia -3.18055e-015
lfoot 16.2604 -14.5025
ltoes -8.33382
